<?xml version="1.0" encoding="utf-8"?>
<!-- Generator: Adobe Illustrator 21.0.2, SVG Export Plug-In . SVG Version: 6.00 Build 0)  -->
<svg version="1.1" id="E_x2013_D" xmlns="http://www.w3.org/2000/svg" xmlns:xlink="http://www.w3.org/1999/xlink" x="0px" y="0px"
	 viewBox="0 0 70.1 40.6" style="enable-background:new 0 0 70.1 40.6;" xml:space="preserve">
<style type="text/css">
	.st0{fill:#FFFFFF;}
</style>
<g>
	<polygon class="st0" points="11.4,13.7 11.4,26.9 20.3,26.9 20.3,24.6 13.9,24.6 13.9,21.4 19.5,21.4 19.5,19 13.9,19 13.9,16 
		20.1,16 20.1,13.7 	"/>
	<path class="st0" d="M56.1,20.2c0-2.6-1.7-4.1-4-4.1h-1.6v8.3h1.6C54.4,24.4,56.1,22.9,56.1,20.2 M58.7,20.3c0,4.3-3.1,6.6-6.6,6.6
		h-4.2V13.7h4.2C55.5,13.7,58.7,16,58.7,20.3"/>
	<rect x="24.7" y="19" class="st0" width="18.6" height="2.4"/>
</g>
</svg>
