<?xml version="1.0" encoding="utf-8"?>
<!-- Generator: Adobe Illustrator 21.0.2, SVG Export Plug-In . SVG Version: 6.00 Build 0)  -->
<svg version="1.1" id="E_x2013_D" xmlns="http://www.w3.org/2000/svg" xmlns:xlink="http://www.w3.org/1999/xlink" x="0px" y="0px"
	 viewBox="0 0 70.1 40.6" style="enable-background:new 0 0 70.1 40.6;" xml:space="preserve">
<style type="text/css">
	.st0{fill:#FFFFFF;}
</style>
<path class="st0" d="M63.6,25.1c0,0-0.6,0.4-1.3,0.4c-0.8,0-1.4-0.6-1.4-1.3v-4.9h2.7V17h-2.7v-3.2h-2.6V16c0,0.8-0.5,1.3-1.2,1.3
	H56v2.1h2.2v5c0,2.2,1.8,3.6,3.9,3.6c1.7,0,2.6-0.9,2.6-0.9L63.6,25.1z M53.3,16.9c-1.8,0-2.8,0.8-3.3,1.3h-0.3L49.3,17h-2.2v10.8
	h2.9v-5.5c0-2,1.6-2.8,3.1-2.8c0.4,0,0.7,0,1,0.1v-2.8H53.3z M36.9,24.7c0-1.1,1.9-1.4,3.9-1.6v0.2C40.7,26.2,36.9,26.3,36.9,24.7
	 M43.5,24.2v-2.9c0-3.1-1.8-4.4-4.4-4.4c-2.6,0-4.2,1.3-4.4,3.3h2.7c0,0,0.1-0.9,1.6-0.9c1.1,0,1.8,0.5,1.8,1.7
	c-2.1,0.1-6.7,0.4-6.7,3.8c0,1.9,1.6,3.2,4,3.2c1.7,0,2.8-0.6,3.4-1.5c0.4,0.9,1.3,1.4,2.5,1.4h0.6v-2.1
	C44,25.8,43.5,25.5,43.5,24.2 M31.4,25.1c0,0-0.6,0.4-1.3,0.4c-0.8,0-1.4-0.6-1.4-1.3v-4.9h2.7V17h-2.7v-3.2h-2.6V16
	c0,0.8-0.5,1.3-1.2,1.3h-1.1v2.1h2.2v5c0,2.2,1.8,3.6,3.9,3.6c1.7,0,2.6-0.9,2.6-0.9L31.4,25.1z M22.2,23.7c0-3.4-3.4-4.3-5-5
	c-1.5-0.7-2.3-1-2.3-2c0-1,0.9-1.5,1.9-1.5c1.1,0,2,0.5,2.2,1.4h2.8c0-1.9-1.8-4-4.9-4c-2.7,0-4.9,1.6-4.9,4.1
	c0,2.9,2.9,3.9,4.9,4.7c1.2,0.5,2.5,1,2.5,2.3c0,1.4-1.5,1.7-2.2,1.7c-1,0-2.5-0.4-2.8-2.3h-2.8c0,2.8,2.3,5,5.6,5
	C19.9,28,22.2,26.5,22.2,23.7"/>
</svg>
