<?xml version="1.0" encoding="utf-8"?>
<!-- Generator: Adobe Illustrator 20.0.0, SVG Export Plug-In . SVG Version: 6.00 Build 0)  -->
<svg version="1.1" id="Layer_1" xmlns="http://www.w3.org/2000/svg" xmlns:xlink="http://www.w3.org/1999/xlink" x="0px" y="0px"
	 width="239px" height="43.5px" viewBox="0 0 239 43.5" style="enable-background:new 0 0 239 43.5;" xml:space="preserve">
<style type="text/css">
	.st0{fill:#FFFFFF;}
</style>
<title>logo</title>
<g>
	<path class="st0" d="M232.8,13.5h-25c-1.2,0-2.2-1-2.2-2.2v0c0-1.2,1-2.2,2.2-2.2h25c1.2,0,2.2,1,2.2,2.2v0
		C235,12.5,234,13.5,232.8,13.5z"/>
	<path class="st0" d="M232.8,23.9h-25c-1.2,0-2.2-1-2.2-2.2v0c0-1.2,1-2.2,2.2-2.2h25c1.2,0,2.2,1,2.2,2.2v0
		C235,22.9,234,23.9,232.8,23.9z"/>
	<path class="st0" d="M232.8,34.3h-25c-1.2,0-2.2-1-2.2-2.2v0c0-1.2,1-2.2,2.2-2.2h25c1.2,0,2.2,1,2.2,2.2v0
		C235,33.4,234,34.3,232.8,34.3z"/>
</g>
</svg>
