<svg xmlns="http://www.w3.org/2000/svg" width="84.31mm" height="15.35mm" viewBox="0 0 239 43.5">
  <title>logo</title>
  <g>
    <path d="M2.36,36.92H25v5H2.36v-5Z" style="fill: blue"/>
    <path d="M24.36,36.92H47v5H24.36v-5Z" style="fill: blue"/>
    <path d="M46.36,36.92H69v5H46.36v-5Z" style="fill: blue"/>
    <path d="M84.52,32.62c-1.56-1.56-2.17-3.74-2.17-10.48S83,13.23,84.52,11.62c1-1,2.3-1.43,4.74-1.43H97c2.43,0,3.74.39,4.78,1.43,1.56,1.61,2.13,3.74,2.13,10.52s-0.57,8.91-2.13,10.48c-1,1.09-2.35,1.48-4.78,1.48H89.26C86.83,34.1,85.57,33.71,84.52,32.62Zm4.87-4.13c0.3,0.3.65,0.39,1.78,0.39h4c1.13,0,1.48-.09,1.74-0.39s0.57-1.22.57-6.35-0.22-6-.57-6.35-0.61-.43-1.74-0.43h-4c-1.13,0-1.48.09-1.78,0.43s-0.52,1.22-.52,6.35S89,28.1,89.39,28.49Z" style="fill: blue"/>
    <path d="M119.26,7.06a1.89,1.89,0,0,0-1.39.3,3.24,3.24,0,0,0-.35,2v0.91H122v5.17h-4.39V28.93h3.35V34.1h-13V28.93h3.22V15.41h-3.22V10.19h3.22V9c0-3,.35-4.52,1.35-5.52S114.48,2,117,2h5.3v5h-3.09Z" style="fill: blue"/>
    <path d="M139,32.62c-1.57-1.56-2.17-3.43-2.17-10.48s0.61-8.91,2.17-10.52c1-1,2.3-1.43,4.74-1.43h7.83c2.56,0,3.52.65,4.26,1.39,1.13,1.13,1.57,3.17,1.57,7.39h-6.13c0-2.26-.17-2.91-0.43-3.22a2.05,2.05,0,0,0-1.56-.39H145.6c-1.13,0-1.48.09-1.78,0.43s-0.52,1.22-.52,6.35,0.17,6,.52,6.35,0.65,0.39,1.78.39h3.65a2,2,0,0,0,1.61-.39c0.3-.3.43-1.09,0.43-3.52h6.13c0,4.65-.43,6.56-1.61,7.74-0.7.7-1.74,1.39-4.26,1.39h-7.87C141.25,34.1,140,33.71,139,32.62Z" style="fill: blue"/>
    <path d="M163.73,32.62c-1.57-1.56-2.17-3.74-2.17-10.48s0.61-8.91,2.17-10.52c1-1,2.3-1.43,4.74-1.43h7.78c2.43,0,3.74.39,4.78,1.43,1.57,1.61,2.13,3.74,2.13,10.52S182.6,31.06,181,32.62c-1,1.09-2.35,1.48-4.78,1.48h-7.78C166,34.1,164.77,33.71,163.73,32.62Zm4.87-4.13c0.3,0.3.65,0.39,1.78,0.39h4c1.13,0,1.48-.09,1.74-0.39s0.56-1.22.56-6.35-0.22-6-.56-6.35-0.61-.43-1.74-0.43h-4c-1.13,0-1.48.09-1.78,0.43s-0.52,1.22-.52,6.35S168.25,28.1,168.6,28.49Z" style="fill: blue"/>
    <path d="M202.64,31c-3,2.65-4,3.13-6,3.13h-2.13c-2.52,0-3.87-.43-4.91-1.48-1.43-1.43-2-3.52-2-10.52s0.7-9,2.17-10.52c1-1,2.43-1.48,4.83-1.48h2.26c2,0,3.09.39,5.78,2.7V7.19h-3.22V2h9.74V28.93h3.22V34.1h-9.74V31Zm0-3V16.36a8.25,8.25,0,0,0-3.56-1h-2a2.83,2.83,0,0,0-2.17.56c-0.57.56-.74,1.65-0.74,6.22s0.17,5.61.74,6.22c0.39,0.39,1,.52,2.17.52h2A8.3,8.3,0,0,0,202.64,28Z" style="fill: blue"/>
    <path d="M221.89,23.8c0,3.91.26,4.65,0.57,5s0.74,0.43,2.09.43h3.35c1.35,0,1.7-.13,2-0.43s0.3-.91.35-2.61h6c0,3.56-.44,5.39-1.61,6.56-0.74.74-1.74,1.39-4.26,1.39h-8c-2.43,0-3.7-.39-4.74-1.48-1.56-1.56-2.17-3.43-2.17-10.48s0.61-8.91,2.17-10.52c1-1,2.3-1.43,4.74-1.43h7.13c2.43,0,3.78.39,4.78,1.43,1.56,1.56,1.91,3.61,1.91,10.48v0.74a0.78,0.78,0,0,1-1,1H221.89Zm0-3.7H230c0-3.22-.22-4.26-0.52-4.61s-0.65-.39-2-0.39h-2.91c-1.35,0-1.78.09-2.13,0.44S221.94,16.62,221.89,20.1Z" style="fill: blue"/>
  </g>
</svg>
